# xmcd
# 
# Track frame offsets:
#     182
#     16277
#     31897
#     48022
#     64130
#     76120
#     91975
#     104615
#     119397
#     137752
# 
# Disc length: 2051
# 
# Revision: 0
# Processed by: cddbd v1.5.2PL0 Copyright (c) Steve Scherf et al.
# Submitted via: BonkEnc v1.0.8
# 
DISCID=7708010a
DTITLE=James Taylor - Walking Man
DYEAR=1974
DGENRE=Folk
TTITLE0=Walking Man
TTITLE1=Rock n Roll is Music Now
TTITLE2=Let It All Fall Down
TTITLE3=Me and My Guitar
TTITLE4=Daddy's Baby
TTITLE5=Ain't No Song
TTITLE6=Hello Old Friend
TTITLE7=Migration
TTITLE8=The Promised Land
TTITLE9=Fading Away
EXTD=YEAR: 1974
EXTT0=
EXTT1=
EXTT2=
EXTT3=
EXTT4=
EXTT5=
EXTT6=
EXTT7=
EXTT8=
EXTT9=
PLAYORDER=
